<mxfile host="Electron" agent="Mozilla/5.0 (X11; Linux x86_64) AppleWebKit/537.36 (KHTML, like Gecko) draw.io/28.1.2 Chrome/138.0.7204.243 Electron/37.4.0 Safari/537.36" version="28.1.2" pages="2">
  <diagram name="Page-1" id="qyKOhX7wKubJx3A1yhwW">
    <mxGraphModel dx="950" dy="575" grid="1" gridSize="10" guides="1" tooltips="1" connect="1" arrows="1" fold="1" page="1" pageScale="1" pageWidth="827" pageHeight="1169" math="1" shadow="0">
      <root>
        <mxCell id="0" />
        <mxCell id="1" parent="0" />
        <mxCell id="SKo15fLE6GQcyllnIHAm-7" value="" style="edgeStyle=orthogonalEdgeStyle;rounded=0;orthogonalLoop=1;jettySize=auto;html=1;" parent="1" source="rzhAfjj5DbKfYVlqXlJ3-3" target="kir_VGYGd0OHTudOm7uo-5" edge="1">
          <mxGeometry relative="1" as="geometry" />
        </mxCell>
        <mxCell id="rzhAfjj5DbKfYVlqXlJ3-3" value="$$\hat{X}$$" style="rounded=1;whiteSpace=wrap;html=1;fontSize=15;" parent="1" vertex="1">
          <mxGeometry x="395" y="82" width="70" height="40" as="geometry" />
        </mxCell>
        <mxCell id="gshfcQeMo9viiWqzpoU_-25" value="" style="shape=table;startSize=0;container=1;collapsible=0;childLayout=tableLayout;fontSize=11;fillColor=none;strokeColor=default;perimeterSpacing=0;strokeWidth=0.5;opacity=80;" parent="1" vertex="1">
          <mxGeometry x="12.5" y="79" width="140" height="74" as="geometry" />
        </mxCell>
        <mxCell id="gshfcQeMo9viiWqzpoU_-26" value="" style="shape=tableRow;horizontal=0;startSize=0;swimlaneHead=0;swimlaneBody=0;strokeColor=inherit;top=0;left=0;bottom=0;right=0;collapsible=0;dropTarget=0;fillColor=none;points=[[0,0.5],[1,0.5]];portConstraint=eastwest;fontSize=16;" parent="gshfcQeMo9viiWqzpoU_-25" vertex="1">
          <mxGeometry width="140" height="20" as="geometry" />
        </mxCell>
        <mxCell id="gshfcQeMo9viiWqzpoU_-27" value="\(n\): sample size" style="shape=partialRectangle;html=1;whiteSpace=wrap;connectable=0;strokeColor=inherit;overflow=hidden;fillColor=none;top=0;left=0;bottom=0;right=0;pointerEvents=1;fontSize=12;align=left;spacingLeft=5;" parent="gshfcQeMo9viiWqzpoU_-26" vertex="1">
          <mxGeometry width="140" height="20" as="geometry">
            <mxRectangle width="140" height="20" as="alternateBounds" />
          </mxGeometry>
        </mxCell>
        <mxCell id="gshfcQeMo9viiWqzpoU_-28" value="" style="shape=tableRow;horizontal=0;startSize=0;swimlaneHead=0;swimlaneBody=0;strokeColor=inherit;top=0;left=0;bottom=0;right=0;collapsible=0;dropTarget=0;fillColor=none;points=[[0,0.5],[1,0.5]];portConstraint=eastwest;fontSize=16;" parent="gshfcQeMo9viiWqzpoU_-25" vertex="1">
          <mxGeometry y="20" width="140" height="18" as="geometry" />
        </mxCell>
        <mxCell id="gshfcQeMo9viiWqzpoU_-29" value="\(p\): # covariates" style="shape=partialRectangle;html=1;whiteSpace=wrap;connectable=0;strokeColor=inherit;overflow=hidden;fillColor=none;top=0;left=0;bottom=0;right=0;pointerEvents=1;fontSize=12;align=left;spacingLeft=5;" parent="gshfcQeMo9viiWqzpoU_-28" vertex="1">
          <mxGeometry width="140" height="18" as="geometry">
            <mxRectangle width="140" height="18" as="alternateBounds" />
          </mxGeometry>
        </mxCell>
        <mxCell id="gshfcQeMo9viiWqzpoU_-32" style="shape=tableRow;horizontal=0;startSize=0;swimlaneHead=0;swimlaneBody=0;strokeColor=inherit;top=0;left=0;bottom=0;right=0;collapsible=0;dropTarget=0;fillColor=none;points=[[0,0.5],[1,0.5]];portConstraint=eastwest;fontSize=16;" parent="gshfcQeMo9viiWqzpoU_-25" vertex="1">
          <mxGeometry y="38" width="140" height="18" as="geometry" />
        </mxCell>
        <mxCell id="gshfcQeMo9viiWqzpoU_-33" value="\(k\): VAE latent dimension" style="shape=partialRectangle;html=1;whiteSpace=wrap;connectable=0;strokeColor=inherit;overflow=hidden;fillColor=none;top=0;left=0;bottom=0;right=0;pointerEvents=1;fontSize=12;align=left;spacingLeft=5;" parent="gshfcQeMo9viiWqzpoU_-32" vertex="1">
          <mxGeometry width="140" height="18" as="geometry">
            <mxRectangle width="140" height="18" as="alternateBounds" />
          </mxGeometry>
        </mxCell>
        <mxCell id="gshfcQeMo9viiWqzpoU_-48" style="shape=tableRow;horizontal=0;startSize=0;swimlaneHead=0;swimlaneBody=0;strokeColor=inherit;top=0;left=0;bottom=0;right=0;collapsible=0;dropTarget=0;fillColor=none;points=[[0,0.5],[1,0.5]];portConstraint=eastwest;fontSize=16;" parent="gshfcQeMo9viiWqzpoU_-25" vertex="1">
          <mxGeometry y="56" width="140" height="18" as="geometry" />
        </mxCell>
        <mxCell id="gshfcQeMo9viiWqzpoU_-49" value="\(T\): # time points" style="shape=partialRectangle;html=1;whiteSpace=wrap;connectable=0;strokeColor=inherit;overflow=hidden;fillColor=none;top=0;left=0;bottom=0;right=0;pointerEvents=1;fontSize=12;align=left;spacingLeft=5;" parent="gshfcQeMo9viiWqzpoU_-48" vertex="1">
          <mxGeometry width="140" height="18" as="geometry">
            <mxRectangle width="140" height="18" as="alternateBounds" />
          </mxGeometry>
        </mxCell>
        <mxCell id="gshfcQeMo9viiWqzpoU_-34" value="Notation" style="text;html=1;align=center;verticalAlign=middle;whiteSpace=wrap;rounded=0;fillColor=#ffe6cc;strokeColor=#d79b00;" parent="1" vertex="1">
          <mxGeometry x="12.5" y="49" width="140" height="30" as="geometry" />
        </mxCell>
        <mxCell id="gshfcQeMo9viiWqzpoU_-38" value="$$(n \times&amp;nbsp;p)$$" style="text;html=1;align=center;verticalAlign=middle;whiteSpace=wrap;rounded=0;fillColor=none;strokeColor=#b85450;gradientColor=none;fillStyle=auto;shadow=0;fontSize=10;" parent="1" vertex="1">
          <mxGeometry x="315" y="88.25" width="80" height="25.5" as="geometry" />
        </mxCell>
        <mxCell id="SKo15fLE6GQcyllnIHAm-9" value="" style="edgeStyle=orthogonalEdgeStyle;rounded=0;orthogonalLoop=1;jettySize=auto;html=1;entryX=1;entryY=0.5;entryDx=0;entryDy=0;" parent="1" source="gshfcQeMo9viiWqzpoU_-52" target="kir_VGYGd0OHTudOm7uo-5" edge="1">
          <mxGeometry relative="1" as="geometry">
            <mxPoint x="350" y="207.5" as="targetPoint" />
          </mxGeometry>
        </mxCell>
        <mxCell id="gshfcQeMo9viiWqzpoU_-52" value="$$y_0$$" style="rounded=0;whiteSpace=wrap;html=1;fillColor=#dae8fc;strokeColor=#6c8ebf;" parent="1" vertex="1">
          <mxGeometry x="530" y="80.5" width="90" height="41" as="geometry" />
        </mxCell>
        <mxCell id="gshfcQeMo9viiWqzpoU_-53" value="$$(n \times 1)$$" style="text;html=1;align=center;verticalAlign=middle;whiteSpace=wrap;rounded=0;fillColor=none;strokeColor=#b85450;gradientColor=none;fillStyle=auto;shadow=0;fontSize=10;" parent="1" vertex="1">
          <mxGeometry x="620" y="87" width="62" height="25.5" as="geometry" />
        </mxCell>
        <mxCell id="kir_VGYGd0OHTudOm7uo-4" value="&lt;div&gt;$$h_{out}$$&lt;/div&gt;" style="rounded=1;whiteSpace=wrap;html=1;fontSize=15;" parent="1" vertex="1">
          <mxGeometry x="395" y="590" width="70" height="40" as="geometry" />
        </mxCell>
        <mxCell id="SKo15fLE6GQcyllnIHAm-11" value="" style="edgeStyle=orthogonalEdgeStyle;rounded=0;orthogonalLoop=1;jettySize=auto;html=1;entryX=0.5;entryY=0;entryDx=0;entryDy=0;" parent="1" source="kir_VGYGd0OHTudOm7uo-5" target="SKo15fLE6GQcyllnIHAm-10" edge="1">
          <mxGeometry relative="1" as="geometry" />
        </mxCell>
        <mxCell id="kir_VGYGd0OHTudOm7uo-5" value="concat over last dim" style="ellipse;whiteSpace=wrap;html=1;fontSize=10;" parent="1" vertex="1">
          <mxGeometry x="398" y="167" width="65" height="40" as="geometry" />
        </mxCell>
        <mxCell id="SKo15fLE6GQcyllnIHAm-5" value="Outcome measured at baseline" style="text;html=1;align=center;verticalAlign=middle;whiteSpace=wrap;rounded=0;" parent="1" vertex="1">
          <mxGeometry x="517.5" y="49.5" width="115" height="30" as="geometry" />
        </mxCell>
        <mxCell id="SKo15fLE6GQcyllnIHAm-22" value="" style="edgeStyle=orthogonalEdgeStyle;rounded=0;orthogonalLoop=1;jettySize=auto;html=1;entryX=0.5;entryY=0;entryDx=0;entryDy=0;" parent="1" source="SKo15fLE6GQcyllnIHAm-18" target="kir_VGYGd0OHTudOm7uo-4" edge="1">
          <mxGeometry relative="1" as="geometry">
            <mxPoint x="430" y="548" as="targetPoint" />
          </mxGeometry>
        </mxCell>
        <mxCell id="SKo15fLE6GQcyllnIHAm-18" value="Sinusoidal Positional Encoding" style="ellipse;whiteSpace=wrap;html=1;fontSize=10;" parent="1" vertex="1">
          <mxGeometry x="387" y="489" width="85" height="50" as="geometry" />
        </mxCell>
        <mxCell id="SKo15fLE6GQcyllnIHAm-24" value="Inputs" style="rounded=0;whiteSpace=wrap;html=1;fillColor=#dae8fc;strokeColor=#6c8ebf;" parent="1" vertex="1">
          <mxGeometry x="13.5" y="155" width="137.5" height="20" as="geometry" />
        </mxCell>
        <mxCell id="SKo15fLE6GQcyllnIHAm-26" value="&lt;div&gt;Outputs&lt;/div&gt;" style="rounded=0;whiteSpace=wrap;html=1;fillColor=#f8cecc;strokeColor=#b85450;" parent="1" vertex="1">
          <mxGeometry x="13.5" y="176" width="137.5" height="20" as="geometry" />
        </mxCell>
        <mxCell id="SKo15fLE6GQcyllnIHAm-27" value="Stochastic" style="rounded=0;whiteSpace=wrap;html=1;fillColor=#d5e8d4;strokeColor=#82b366;" parent="1" vertex="1">
          <mxGeometry x="13.5" y="197" width="137.5" height="20" as="geometry" />
        </mxCell>
        <mxCell id="kir_VGYGd0OHTudOm7uo-9" value="$$(n \times T \times p&#39;)$$" style="text;html=1;align=center;verticalAlign=middle;whiteSpace=wrap;rounded=0;fillColor=none;strokeColor=#b85450;gradientColor=none;fillStyle=auto;shadow=0;fontSize=10;" parent="1" vertex="1">
          <mxGeometry x="309.5" y="598" width="85" height="22.75" as="geometry" />
        </mxCell>
        <mxCell id="SKo15fLE6GQcyllnIHAm-68" value="" style="swimlane;startSize=0;fillColor=#ffe6cc;strokeColor=#d79b00;dashed=1;" parent="1" vertex="1">
          <mxGeometry x="282.5" y="148" width="337.5" height="410" as="geometry" />
        </mxCell>
        <mxCell id="SKo15fLE6GQcyllnIHAm-69" value="&lt;b&gt;Processing pre-transformer&lt;/b&gt;" style="text;html=1;align=center;verticalAlign=middle;whiteSpace=wrap;rounded=0;" parent="SKo15fLE6GQcyllnIHAm-68" vertex="1">
          <mxGeometry x="217.5" y="9" width="120" height="20" as="geometry" />
        </mxCell>
        <mxCell id="SKo15fLE6GQcyllnIHAm-10" value="$$h$$" style="rounded=1;whiteSpace=wrap;html=1;fontSize=15;" parent="SKo15fLE6GQcyllnIHAm-68" vertex="1">
          <mxGeometry x="113" y="77.38" width="70" height="40" as="geometry" />
        </mxCell>
        <mxCell id="SKo15fLE6GQcyllnIHAm-12" value="$$(n \times&amp;nbsp;p)$$" style="text;html=1;align=center;verticalAlign=middle;whiteSpace=wrap;rounded=0;fillColor=none;strokeColor=#b85450;gradientColor=none;fillStyle=auto;shadow=0;fontSize=10;" parent="SKo15fLE6GQcyllnIHAm-68" vertex="1">
          <mxGeometry x="183" y="86.01" width="57" height="22.75" as="geometry" />
        </mxCell>
        <mxCell id="gshfcQeMo9viiWqzpoU_-46" value="expand over time" style="ellipse;whiteSpace=wrap;html=1;fontSize=10;" parent="SKo15fLE6GQcyllnIHAm-68" vertex="1">
          <mxGeometry x="37.5" y="117.38" width="50" height="40" as="geometry" />
        </mxCell>
        <mxCell id="SKo15fLE6GQcyllnIHAm-13" value="" style="edgeStyle=orthogonalEdgeStyle;rounded=0;orthogonalLoop=1;jettySize=auto;html=1;entryX=0.5;entryY=0;entryDx=0;entryDy=0;" parent="SKo15fLE6GQcyllnIHAm-68" source="SKo15fLE6GQcyllnIHAm-10" target="gshfcQeMo9viiWqzpoU_-46" edge="1">
          <mxGeometry relative="1" as="geometry" />
        </mxCell>
        <mxCell id="je9HBZ-PjT7DeAHVx5pH-3" value="" style="edgeStyle=orthogonalEdgeStyle;rounded=0;orthogonalLoop=1;jettySize=auto;html=1;" parent="SKo15fLE6GQcyllnIHAm-68" source="gshfcQeMo9viiWqzpoU_-43" target="je9HBZ-PjT7DeAHVx5pH-2" edge="1">
          <mxGeometry relative="1" as="geometry" />
        </mxCell>
        <mxCell id="gshfcQeMo9viiWqzpoU_-43" value="$$h_{exp}$$" style="rounded=1;whiteSpace=wrap;html=1;fontSize=15;" parent="SKo15fLE6GQcyllnIHAm-68" vertex="1">
          <mxGeometry x="111.5" y="150" width="70" height="40" as="geometry" />
        </mxCell>
        <mxCell id="SKo15fLE6GQcyllnIHAm-16" value="$$(n \times T \times p)$$" style="text;html=1;align=center;verticalAlign=middle;whiteSpace=wrap;rounded=0;fillColor=none;strokeColor=#b85450;gradientColor=none;fillStyle=auto;shadow=0;fontSize=10;" parent="SKo15fLE6GQcyllnIHAm-68" vertex="1">
          <mxGeometry x="182" y="158.38" width="68" height="22.75" as="geometry" />
        </mxCell>
        <mxCell id="je9HBZ-PjT7DeAHVx5pH-1" value="$$h_{proj}$$" style="rounded=1;whiteSpace=wrap;html=1;fontSize=15;" parent="SKo15fLE6GQcyllnIHAm-68" vertex="1">
          <mxGeometry x="111.5" y="270" width="70" height="40" as="geometry" />
        </mxCell>
        <mxCell id="je9HBZ-PjT7DeAHVx5pH-8" value="" style="edgeStyle=orthogonalEdgeStyle;rounded=0;orthogonalLoop=1;jettySize=auto;html=1;" parent="SKo15fLE6GQcyllnIHAm-68" source="je9HBZ-PjT7DeAHVx5pH-2" target="je9HBZ-PjT7DeAHVx5pH-1" edge="1">
          <mxGeometry relative="1" as="geometry" />
        </mxCell>
        <mxCell id="je9HBZ-PjT7DeAHVx5pH-2" value="$$f_{W_h}$$" style="ellipse;whiteSpace=wrap;html=1;fontSize=10;" parent="SKo15fLE6GQcyllnIHAm-68" vertex="1">
          <mxGeometry x="125.5" y="216" width="42" height="30" as="geometry" />
        </mxCell>
        <mxCell id="je9HBZ-PjT7DeAHVx5pH-5" value="Feed-forward NN" style="text;html=1;align=center;verticalAlign=middle;whiteSpace=wrap;rounded=0;" parent="SKo15fLE6GQcyllnIHAm-68" vertex="1">
          <mxGeometry x="46.5" y="216" width="75" height="30" as="geometry" />
        </mxCell>
        <mxCell id="je9HBZ-PjT7DeAHVx5pH-9" value="" style="endArrow=classic;html=1;rounded=0;exitX=0.5;exitY=1;exitDx=0;exitDy=0;entryX=0;entryY=0.5;entryDx=0;entryDy=0;" parent="SKo15fLE6GQcyllnIHAm-68" source="gshfcQeMo9viiWqzpoU_-46" target="gshfcQeMo9viiWqzpoU_-43" edge="1">
          <mxGeometry width="50" height="50" relative="1" as="geometry">
            <mxPoint x="250" y="256" as="sourcePoint" />
            <mxPoint x="300" y="206" as="targetPoint" />
            <Array as="points">
              <mxPoint x="87.5" y="170" />
            </Array>
          </mxGeometry>
        </mxCell>
        <mxCell id="je9HBZ-PjT7DeAHVx5pH-10" value="$$(n \times T \times p&#39;)$$" style="text;html=1;align=center;verticalAlign=middle;whiteSpace=wrap;rounded=0;fillColor=none;strokeColor=#b85450;gradientColor=none;fillStyle=auto;shadow=0;fontSize=10;" parent="SKo15fLE6GQcyllnIHAm-68" vertex="1">
          <mxGeometry x="181.5" y="278.63" width="94.5" height="22.75" as="geometry" />
        </mxCell>
        <mxCell id="je9HBZ-PjT7DeAHVx5pH-7" value="" style="edgeStyle=orthogonalEdgeStyle;rounded=0;orthogonalLoop=1;jettySize=auto;html=1;" parent="1" source="je9HBZ-PjT7DeAHVx5pH-1" target="SKo15fLE6GQcyllnIHAm-18" edge="1">
          <mxGeometry relative="1" as="geometry" />
        </mxCell>
      </root>
    </mxGraphModel>
  </diagram>
  <diagram id="ePtbMaemszxgn41MYKDM" name="Page-2">
    <mxGraphModel grid="1" page="1" gridSize="10" guides="1" tooltips="1" connect="1" arrows="1" fold="1" pageScale="1" pageWidth="827" pageHeight="1169" math="0" shadow="0">
      <root>
        <mxCell id="0" />
        <mxCell id="1" parent="0" />
      </root>
    </mxGraphModel>
  </diagram>
</mxfile>
